<svg xmlns="http://www.w3.org/2000/svg" viewBox="0 0 20.71 20.71"><defs><style>.cls-1{fill:#cc342d;}</style></defs><g id="Layer_2" data-name="Layer 2"><g id="Layer_1-2" data-name="Layer 1"><path id="Youtube" class="cls-1" d="M11.89,12.56c-.21.16-.34.12-.34-.14V11.18a.45.45,0,1,0-.89,0v5.75a.46.46,0,0,0,.44.47c.25,0,.45-.11.45-.25s.13-.06.33.09a1,1,0,0,0,.6.23.71.71,0,0,0,.71-.56,4.12,4.12,0,0,0,.09-1v-2a3.86,3.86,0,0,0-.09-1,.71.71,0,0,0-.71-.56A1,1,0,0,0,11.89,12.56ZM12,16.64a.61.61,0,0,1-.25-.06c-.12-.07-.2-.37-.2-.63v-2.1c0-.26.08-.55.21-.62a.55.55,0,0,1,.24-.07c.26,0,.39.23.39.68V16C12.39,16.42,12.26,16.64,12,16.64Zm-2.28-10v-2c0-.44.14-.67.43-.67s.43.23.43.7v2c0,.44-.15.67-.43.67S9.72,7.06,9.72,6.59ZM17,0H3.77A3.77,3.77,0,0,0,0,3.77V17a3.77,3.77,0,0,0,3.77,3.76H17A3.77,3.77,0,0,0,20.71,17V3.77A3.77,3.77,0,0,0,17,0ZM12.69,3a.47.47,0,0,1,.45.47V6.9a.6.6,0,0,0,.07.33.18.18,0,0,0,.15.06.54.54,0,0,0,.33-.15,1.16,1.16,0,0,0,.24-.75V3.48A.46.46,0,0,1,14.38,3a.47.47,0,0,1,.46.47V7.69a.46.46,0,0,1-.45.47c-.25,0-.45-.12-.45-.28s-.13-.1-.34.06a1.14,1.14,0,0,1-.7.29.55.55,0,0,1-.58-.38,2.51,2.51,0,0,1-.08-.74V3.48A.47.47,0,0,1,12.69,3ZM8.81,4.76V4.65A1.9,1.9,0,0,1,9.1,3.47,1.21,1.21,0,0,1,10.15,3a1.22,1.22,0,0,1,1.06.52,2,2,0,0,1,.28,1.18V6.53a2,2,0,0,1-.29,1.18,1.21,1.21,0,0,1-1,.52,1.24,1.24,0,0,1-1.06-.52,2,2,0,0,1-.28-1.18ZM5.76,1.29h.16a.63.63,0,0,1,.59.45L7,3.49c.07.25.18.25.24,0l.45-1.75a.64.64,0,0,1,.59-.45h.1a.33.33,0,0,1,.33.45L7.73,5a4.08,4.08,0,0,0-.13.92V7.69a.47.47,0,0,1-.47.47H7.06a.47.47,0,0,1-.47-.47V5.89A4.81,4.81,0,0,0,6.49,5Q6.32,4.3,6,3.28L5.44,1.73A.32.32,0,0,1,5.76,1.29ZM17.51,17.7a1.87,1.87,0,0,1-1.6,1.46,49,49,0,0,1-5.55.21,49,49,0,0,1-5.56-.21A1.87,1.87,0,0,1,3.2,17.7a16.11,16.11,0,0,1-.26-3.54,16,16,0,0,1,.27-3.53,1.88,1.88,0,0,1,1.6-1.47A49,49,0,0,1,10.36,9a49,49,0,0,1,5.55.21,1.88,1.88,0,0,1,1.6,1.47,16,16,0,0,1,.26,3.53A16.11,16.11,0,0,1,17.51,17.7Zm-3.25-4.84A2,2,0,0,0,14,14v1.74A1.91,1.91,0,0,0,14.27,17a1.27,1.27,0,0,0,1.08.51,1.23,1.23,0,0,0,1.09-.54,1.42,1.42,0,0,0,.21-.54c0-.09,0-.29,0-.58v-.06s-.2-.07-.45-.07-.46.14-.46.31a2.85,2.85,0,0,1,0,.3.38.38,0,0,1-.4.36c-.31,0-.46-.23-.46-.69v-.44a.46.46,0,0,1,.47-.44h.85a.47.47,0,0,0,.47-.47V14a2,2,0,0,0-.27-1.18,1.25,1.25,0,0,0-1.06-.51A1.26,1.26,0,0,0,14.26,12.86Zm1.06,1.46c-.25,0-.45-.11-.45-.23v-.23c0-.47.15-.7.45-.7s.45.23.45.7v.23C15.77,14.21,15.57,14.32,15.32,14.32ZM9.43,12.41a.46.46,0,0,1,.45.47v4a.46.46,0,0,1-.45.47c-.25,0-.45-.12-.45-.28s-.13-.1-.33.06a1.14,1.14,0,0,1-.69.29.55.55,0,0,1-.58-.38,2.46,2.46,0,0,1-.08-.74V12.88a.45.45,0,1,1,.9,0v3.38a.56.56,0,0,0,.07.32.18.18,0,0,0,.15.06.48.48,0,0,0,.32-.14A1.13,1.13,0,0,0,9,15.75V12.88A.46.46,0,0,1,9.43,12.41Zm-4.91-1.7H6.7a.47.47,0,0,1,.47.47h0a.47.47,0,0,1-.47.47H6.57a.47.47,0,0,0-.47.47v4.81a.47.47,0,0,1-.47.47h0a.47.47,0,0,1-.48-.47V12.12a.47.47,0,0,0-.47-.47H4.52a.47.47,0,0,1-.47-.47h0A.47.47,0,0,1,4.52,10.71Z"/></g></g></svg>