<svg xmlns="http://www.w3.org/2000/svg" viewBox="0 0 20.71 20.71"><defs><style>.cls-1{fill:#3d5b99;}</style></defs><g id="Layer_2" data-name="Layer 2"><g id="Layer_1-2" data-name="Layer 1"><path id="Face" class="cls-1" d="M3.77,0A3.77,3.77,0,0,0,0,3.77V17a3.77,3.77,0,0,0,3.77,3.76h7.32V13.17a.47.47,0,0,0-.47-.47H8.87a.47.47,0,0,1-.47-.47V10a.47.47,0,0,1,.47-.47h1.75a.47.47,0,0,0,.47-.47V7.27a3.77,3.77,0,0,1,4-4.14c.78,0,1.48,0,1.94.08a.52.52,0,0,1,.47.51V5.58a.48.48,0,0,1-.48.47H15.86c-1.29,0-1.54.62-1.54,1.52V9.1a.47.47,0,0,0,.47.47h2.15a.41.41,0,0,1,.41.47l-.29,2.19a.55.55,0,0,1-.53.47H14.79a.47.47,0,0,0-.47.47v7.54H17A3.77,3.77,0,0,0,20.71,17V3.77A3.77,3.77,0,0,0,17,0Z"/></g></g></svg>