<svg xmlns="http://www.w3.org/2000/svg" viewBox="0 0 20.71 20.71"><defs><style>.cls-1{fill:#007bb6;}</style></defs><g id="Layer_2" data-name="Layer 2"><g id="Layer_1-2" data-name="Layer 1"><path id="LinkedIn" class="cls-1" d="M17,0H3.77A3.77,3.77,0,0,0,0,3.77V17a3.77,3.77,0,0,0,3.77,3.76H17A3.77,3.77,0,0,0,20.71,17V3.77A3.77,3.77,0,0,0,17,0ZM5.67,7.77a.47.47,0,0,1,.47.47v8.94a.47.47,0,0,1-.47.47H3.54a.47.47,0,0,1-.47-.47V8.24a.47.47,0,0,1,.47-.47ZM4.61,6.41A1.78,1.78,0,1,1,6.39,4.63,1.78,1.78,0,0,1,4.61,6.41ZM17.18,17.65H15.05a.47.47,0,0,1-.47-.47V12.84c0-1.14,0-2.62-1.6-2.62s-1.84,1.25-1.84,2.54v4.42a.47.47,0,0,1-.47.47H8.54a.47.47,0,0,1-.47-.47V8.24a.47.47,0,0,1,.47-.47h2a.47.47,0,0,1,.47.47v.4a3,3,0,0,0,0,.48s.11-.19.28-.4A3.32,3.32,0,0,1,14,7.52c3.11,0,3.69,2.05,3.69,4.71v4.95A.47.47,0,0,1,17.18,17.65Z"/></g></g></svg>