<svg xmlns="http://www.w3.org/2000/svg" viewBox="0 0 20.71 20.71"><defs><style>.cls-1{fill:#27a8e0;}</style></defs><g id="Layer_2" data-name="Layer 2"><g id="Layer_1-2" data-name="Layer 1"><path id="Twitter" class="cls-1" d="M17,0H3.77A3.77,3.77,0,0,0,0,3.77V17a3.77,3.77,0,0,0,3.77,3.76H17A3.77,3.77,0,0,0,20.71,17V3.77A3.77,3.77,0,0,0,17,0Zm-.6,7.68a8.73,8.73,0,0,1-8.79,8.79,8.69,8.69,0,0,1-4.33-1.14c-.23-.13-.24-.22,0-.21h.37A6.22,6.22,0,0,0,7,14.08c.21-.14.17-.27-.09-.32A3.08,3.08,0,0,1,4.69,12.1c-.12-.23-.05-.41.11-.4l.29,0a3,3,0,0,0,.42,0c.22,0,.19-.12,0-.21a3.11,3.11,0,0,1-2-2.74c0-.05,0-.14.14-.1a4.88,4.88,0,0,0,.79.24c.26,0,.29-.07.1-.24a3.07,3.07,0,0,1-.79-3.42C3.76,5,4,5,4.18,5.16A8.72,8.72,0,0,0,9.77,8c.26,0,.43-.12.41-.31s0-.23,0-.35a3.1,3.1,0,0,1,5-2.44A1,1,0,0,0,16,5.1a6.24,6.24,0,0,0,1.09-.41c.23-.12.35,0,.23.21a3,3,0,0,1-.79,1c-.2.17-.18.25.08.2a6.2,6.2,0,0,0,.87-.24c.24-.09.32,0,.16.21a6,6,0,0,1-.89.92c-.2.17-.37.38-.37.49Z"/></g></g></svg>