<svg xmlns="http://www.w3.org/2000/svg" xmlns:xlink="http://www.w3.org/1999/xlink" viewBox="0 0 20.71 20.71"><defs><style>.cls-1{fill:url(#GradientFill_1);}</style><linearGradient id="GradientFill_1" y1="10.36" x2="20.71" y2="10.36" gradientUnits="userSpaceOnUse"><stop offset="0" stop-color="#326d95"/><stop offset="1" stop-color="#10547b"/></linearGradient></defs><g id="Layer_2" data-name="Layer 2"><g id="Layer_1-2" data-name="Layer 1"><path class="cls-1" d="M15.33,9.19h.38a.48.48,0,0,1,.48.47v5.9a.6.6,0,0,1-.6.6H5.1a.6.6,0,0,1-.6-.6V9.66A.48.48,0,0,1,5,9.19h.44a.36.36,0,0,1,.36.46A4.53,4.53,0,0,0,10.37,15,4.53,4.53,0,0,0,15,9.65.36.36,0,0,1,15.33,9.19ZM13.8,7.48h1.7a.69.69,0,0,0,.68-.68V5.18a.68.68,0,0,0-.68-.68H13.8a.67.67,0,0,0-.68.68V6.8A.68.68,0,0,0,13.8,7.48Zm-3.43,5.77a3,3,0,0,0,3-2.93,3,3,0,0,0-6.06,0A3,3,0,0,0,10.37,13.25ZM20.71,3.77V17A3.77,3.77,0,0,1,17,20.71H3.77A3.77,3.77,0,0,1,0,17V3.77A3.77,3.77,0,0,1,3.77,0H17A3.77,3.77,0,0,1,20.71,3.77Zm-2.82,1A1.94,1.94,0,0,0,16,2.82H4.76A1.94,1.94,0,0,0,2.82,4.76V16a1.94,1.94,0,0,0,1.94,1.94H16A1.94,1.94,0,0,0,17.89,16Z"/></g></g></svg>